<svg xmlns="http://www.w3.org/2000/svg" viewBox="0 0 280 280" fill="none" shape-rendering="auto"><metadata xmlns:rdf="http://www.w3.org/1999/02/22-rdf-syntax-ns#" xmlns:xsi="http://www.w3.org/2001/XMLSchema-instance" xmlns:dc="http://purl.org/dc/elements/1.1/" xmlns:dcterms="http://purl.org/dc/terms/"><rdf:RDF><rdf:Description><dc:title>Avataaars</dc:title><dc:creator>Pablo Stanley</dc:creator><dc:source xsi:type="dcterms:URI">https://avataaars.com/</dc:source><dcterms:license xsi:type="dcterms:URI">https://avataaars.com/</dcterms:license><dc:rights>Remix of „Avataaars” (https://avataaars.com/) by „Pablo Stanley”, licensed under „Free for personal and commercial use” (https://avataaars.com/)</dc:rights></rdf:Description></rdf:RDF></metadata><mask id="viewboxMask"><rect width="280" height="280" rx="0" ry="0" x="0" y="0" fill="#fff" /></mask><g mask="url(#viewboxMask)"><g transform="translate(8)"><path d="M132 36a56 56 0 0 0-56 56v6.17A12 12 0 0 0 66 110v14a12 12 0 0 0 10.3 11.88 56.04 56.04 0 0 0 31.7 44.73v18.4h-4a72 72 0 0 0-72 72v9h200v-9a72 72 0 0 0-72-72h-4v-18.39a56.04 56.04 0 0 0 31.7-44.73A12 12 0 0 0 198 124v-14a12 12 0 0 0-10-11.83V92a56 56 0 0 0-56-56Z" fill="#d08b5b"/><path d="M108 180.61v8a55.79 55.79 0 0 0 24 5.39c8.59 0 16.73-1.93 24-5.39v-8a55.79 55.79 0 0 1-24 5.39 55.79 55.79 0 0 1-24-5.39Z" fill="#000" fill-opacity=".1"/><g transform="translate(0 170)"><path d="M132.5 54C151 54 166 44.37 166 32.5c0-1.1-.13-2.18-.38-3.23A72 72 0 0 1 232 101.05V110H32v-8.95A72 72 0 0 1 99.4 29.2a14.1 14.1 0 0 0-.4 3.3C99 44.37 114 54 132.5 54Z" fill="#ffffb1"/><g transform="translate(77 58)"><path d="M10.27 30.13c3.28-.56 5.73-3.55 5.18-6.79-.46-2.72-1.74-.34-2.97.86-1.34 1.3-2.45 2.57-4.54 2.05-3.6-.9-4.86-5.4-3.84-8.48a5.94 5.94 0 0 1 3.48-3.7c1.85-.74 3.2.1 4.75 1.1.28.19 1.73 1.37 2 1.25.45-.21.1-2.43.04-2.73a4.8 4.8 0 0 0-2.62-3.24c-3.34-1.64-7.52.48-9.64 3.05-4.88 5.9-.91 18.17 8.17 16.62ZM20.28 11.04Zm-1.6 12.86c.51 3.48 2.99 6.5 6.96 6.36 4.28-.16 6.06-4.1 7-7.49.97-3.4 2.06-7.68.67-11.09-.42-1.03-.68-2.38-1.71-1.53-1.26 1.03-1.41 4.04-1.52 5.44-.2 2.65-.78 9.97-4.1 10.95-4.18 1.22-4.05-5.85-4-7.98.03-1.9.24-3.73-.35-5.58-.31-.99-.59-2.44-1.53-1.64-1.29 1.11-1.45 3.83-1.54 5.33-.14 2.4-.21 4.84.13 7.23ZM37.78 26.75c.2.4.63 1.4 1.02 1.67.95.67-.05.71.8-.05.82-.73 1.13-2.72 1.26-3.67.38-2.96-.12-6.11-.09-9.1 1.02 2.22 1.58 4.59 2.39 6.88.55 1.58 1.4 4.8 3.65 4.75 2.45-.05 2.58-3.14 2.9-4.82.47-2.37.97-4.72 1.68-7.04.1 3.91-1.43 11 2.1 13.92.02.02 1.44-4.15 1.47-4.4.23-1.7.09-3.45.11-5.15.05-3.6.72-8-.3-11.5-.33-1.14-.97-2.27-2.4-2.24-1.83.04-2.24 1.99-2.7 3.3a114.02 114.02 0 0 0-3.36 10.94c-.55-1.68-5.34-16.42-8.8-10.9-.55.89-.3 2.22-.33 3.2-.04 1.87-.15 3.75-.2 5.63-.06 2.84-.4 5.9.81 8.58ZM62.02 13.71c.72-.14 5.74-1.73 5.52-.14-.22 1.68-4.63 3.31-5.81 3.88 0-1.2-.24-2.44-.65-3.57l.94-.17Zm5.72-.64c-.03-.04 0 0 0 0Zm.12 8.34c2.27 1.22 1.29 3.42-.43 4.6-.65.47-6.53 1.82-6.51 1.68.18-1.69-.26-5.01 1-6.01 1.3-1.04 4.5-.81 5.94-.26Zm.06-8s.01.03 0 0Zm-9.98 16.85c.23.55.86 1.91 1.57 1.94.86.04.8-1.04.93-1.7 3.44 1.72 8.5-.05 10.9-3.03a6.15 6.15 0 0 0-2.57-9.75c2.1-1.69 4.02-5.4 1.25-7.49a7.68 7.68 0 0 0-8.12-.3c-2.74 1.72-3.85 5.83-4.1 9-.25 3.39-1.15 8.13.14 11.33ZM76.05 21.87c.07 2.07-.15 4.29.33 6.3.17.72.44 1.52.76 2.17.61 1.21.31 1.05 1.03.36 2.18-2.08 1.21-8.58 1.16-11.25-.04-2.08.06-4.28-.51-6.28-.16-.56-1.12-3.35-1.66-3.29-.81.1-1.37 3.93-1.42 4.7-.15 2.4.23 4.9.31 7.3ZM94.75 22.43c-1.58-.14-3.62.07-5.12.56.7-1.92 1.48-4.06 2.24-5.8.47-1.08.97-2.16 1.5-3.23 1.27 2.68 1.98 5.82 2.82 8.66-.47-.08-.96-.15-1.44-.19Zm5.44.72c-.73-2.77-1.58-5.53-2.43-8.27-.54-1.75-1.13-3.92-2.6-5.17-4.16-3.56-6.52 5.85-7.55 8.23-.98 2.3-2.21 4.63-2.85 7.05a9.48 9.48 0 0 0-.24 3.64c.2 1.52 0 1.74 1.3.91 1-.63 1.4-1.79 2.22-2.56.14-.14.22-.68.4-.76.18-.1 1.5.25 1.8.27 2.18.16 4.72-.2 6.72-1.04.2.84 1.63 5.96 2.98 5.77.6-.08.96-3.06 1-3.54.08-1.55-.36-3.05-.75-4.54ZM109.3 9.43c-.26-1.2-.81-3.29-1.84-2.11-1.4 1.6-1.1 5.17-1.11 7.18-.02 1.45-1.55 12.06.56 11.88-.1 0 .84-1.67.98-1.92a12.37 12.37 0 0 0 1.32-4.72c.37-3.24.79-7.12.1-10.3ZM108.16 30.3c-2.23-2.73-6.3.66-5.04 3.38 1.73 3.7 7.33-.57 5.04-3.38ZM94.9 34.54c-2.9-.73-6.3-.24-9.25-.15-3.08.1-6.16.27-9.24.36-6.57.2-13.13.1-19.7.04-12.44-.1-24.92.69-37.37.17-2.67-.12-5.54-.72-8.2-.21-.72.14-3 .54-3.32 1.26-.34.76 1.4 1.56 2.33 1.96 2.42 1.04 5.33.86 7.9.96 2.93.12 5.89.06 8.82-.01 12.07-.3 24.09-1.34 36.18-1.17 6.97.1 13.93.04 20.9 0 3.33-.01 7 .53 10.28-.06.55-.1 3.76-.85 3.8-1.83.03-.46-2.8-1.23-3.12-1.32Z" fill-rule="evenodd" clip-rule="evenodd" fill="#fff"/></g></g><g transform="translate(78 134)"><path d="M28 26.24c1.36.5 2.84.76 4.4.76 5.31 0 9.81-3.15 11.29-7.49 2.47 2.17 6.17 3.54 10.31 3.54 4.14 0 7.84-1.37 10.31-3.53 1.48 4.35 5.98 7.5 11.3 7.5 1.55 0 3.03-.27 4.4-.76h-.19c-6.33 0-11.8-4.9-11.8-10.56 0-4.18 2.32-7.72 5.69-9.68-5.5.8-9.73 5-9.9 10.1a17.61 17.61 0 0 1-9.8 2.8c-3.8 0-7.25-1.06-9.8-2.8-.18-5.1-4.4-9.3-9.9-10.1a11.18 11.18 0 0 1 5.68 9.68c0 5.66-5.47 10.57-11.8 10.57H28Z" fill="#000" fill-opacity=".6" opacity=".6"/><path d="M17 24a9 9 0 1 0 0-18 9 9 0 0 0 0 18ZM91 24a9 9 0 1 0 0-18 9 9 0 0 0 0 18Z" fill="#FF4646" fill-opacity=".2"/></g><g transform="translate(104 122)"><path fill-rule="evenodd" clip-rule="evenodd" d="M16 8c0 4.42 5.37 8 12 8s12-3.58 12-8" fill="#000" fill-opacity=".16"/></g><g transform="translate(76 90)"><path d="M44 22a14 14 0 1 1-28 0 14 14 0 0 1 28 0ZM96 22a14 14 0 1 1-28 0 14 14 0 0 1 28 0Z" fill="#fff"/><path d="M36 14a6 6 0 1 1-12 0 6 6 0 0 1 12 0ZM88 14a6 6 0 1 1-12 0 6 6 0 0 1 12 0Z" fill="#000" fill-opacity=".7"/></g><g transform="translate(76 82)"><path d="M36.37 6.88c-1.97 2.9-5.55 4.64-8.74 5.68-3.94 1.29-18.55 3.38-15.11 11.35.05.12.22.12.27 0 1.15-2.65 17.47-5.12 18.97-5.7 4.45-1.71 8.4-5.5 9.17-10.55.35-2.31-.64-6.05-1.55-7.55-.11-.18-.37-.13-.43.07-.36 1.33-1.41 4.97-2.58 6.7ZM75.63 6.88c1.97 2.9 5.55 4.64 8.74 5.68 3.94 1.29 18.55 3.38 15.11 11.35a.15.15 0 0 1-.27 0c-1.15-2.65-17.47-5.12-18.97-5.7-4.45-1.71-8.4-5.5-9.17-10.55-.35-2.31.64-6.05 1.55-7.55.11-.18.37-.13.43.07.36 1.33 1.41 4.97 2.58 6.7Z" fill-rule="evenodd" clip-rule="evenodd" fill="#000" fill-opacity=".6"/></g><g transform="translate(-1)"><path d="m175.83 55.92-.03.02c.76.88 1.49 1.78 2.19 2.7a55.74 55.74 0 0 1 11 33.36v5.5c0-15.77-6.69-29.98-17.4-39.93-11.58 3.77-49.58 14.27-77.63.42A54.35 54.35 0 0 0 77 97.5V92c0-12.5 4.1-24.04 11.01-33.35.71-.94 1.45-1.86 2.22-2.75l-.02-.02A55.88 55.88 0 0 1 133 36a55.88 55.88 0 0 1 42.82 19.92Z" fill="#000" fill-opacity=".16"/><path d="M92.54 53.29A55.81 55.81 0 0 0 77 91.99v6.17a11.97 11.97 0 0 0-6.49 3.34l.7-17.37a45.92 45.92 0 0 1 17.37-34.17c-2.2-3.84-1.45-10.33 7.8-13.1 5.07-1.5 7.57-5.08 10.24-8.88 3.5-5 7.27-10.37 17.48-11.92 9.87-1.5 13.23-.88 17.05-.18 3.13.57 6.58 1.2 14.2.76 9.85-.57 16.86-4 21.43-6.22 3.26-1.6 5.27-2.58 6.17-1.47 15.42 18.9 6.97 33.8-6.2 41.96A45.9 45.9 0 0 1 193 86v13.6c-1.22-.7-2.56-1.2-4-1.43V92c0-15.26-6.1-29.09-16-39.19-7.76 2.75-50.39 16.55-80.46.48ZM223.61 226.05c3.06 5.6 4.05 11.12 3.5 16.38A72.02 72.02 0 0 0 161 199h-4v-18.39a56.03 56.03 0 0 0 31.8-45.74c1.5-.23 2.93-.74 4.2-1.47v20.7c0 20.77 11.47 39.79 22.15 57.47 2.97 4.93 5.88 9.75 8.46 14.48ZM68.7 146.5l.66-16.35a12 12 0 0 0 7.85 4.72A56.03 56.03 0 0 0 109 180.6V199h-4c-11.2 0-21.8 2.56-31.25 7.12-2.99-18.29-4.3-38.68-5.05-59.62Z" fill="#e8e1e1"/><path fill-rule="evenodd" clip-rule="evenodd" d="M90.88 52.36c33.22 19.3 83.37 0 83.37 0 14.53-7.77 25.08-23.32 8.7-43.4-2.17-2.66-10.7 6.72-27.6 7.7-16.9.97-13.27-3.31-31.25-.59-17.97 2.73-15.99 17.3-27.72 20.8-11.73 3.5-9.8 13-5.5 15.5Z" fill="#fff" fill-opacity=".2"/></g><g transform="translate(49 72)"></g><g transform="translate(62 42)"></g></g></g></svg>