<svg xmlns="http://www.w3.org/2000/svg" viewBox="0 0 280 280" fill="none" shape-rendering="auto"><metadata xmlns:rdf="http://www.w3.org/1999/02/22-rdf-syntax-ns#" xmlns:xsi="http://www.w3.org/2001/XMLSchema-instance" xmlns:dc="http://purl.org/dc/elements/1.1/" xmlns:dcterms="http://purl.org/dc/terms/"><rdf:RDF><rdf:Description><dc:title>Avataaars</dc:title><dc:creator>Pablo Stanley</dc:creator><dc:source xsi:type="dcterms:URI">https://avataaars.com/</dc:source><dcterms:license xsi:type="dcterms:URI">https://avataaars.com/</dcterms:license><dc:rights>Remix of „Avataaars” (https://avataaars.com/) by „Pablo Stanley”, licensed under „Free for personal and commercial use” (https://avataaars.com/)</dc:rights></rdf:Description></rdf:RDF></metadata><mask id="viewboxMask"><rect width="280" height="280" rx="0" ry="0" x="0" y="0" fill="#fff" /></mask><g mask="url(#viewboxMask)"><g transform="translate(8)"><path d="M132 36a56 56 0 0 0-56 56v6.17A12 12 0 0 0 66 110v14a12 12 0 0 0 10.3 11.88 56.04 56.04 0 0 0 31.7 44.73v18.4h-4a72 72 0 0 0-72 72v9h200v-9a72 72 0 0 0-72-72h-4v-18.39a56.04 56.04 0 0 0 31.7-44.73A12 12 0 0 0 198 124v-14a12 12 0 0 0-10-11.83V92a56 56 0 0 0-56-56Z" fill="#edb98a"/><path d="M108 180.61v8a55.79 55.79 0 0 0 24 5.39c8.59 0 16.73-1.93 24-5.39v-8a55.79 55.79 0 0 1-24 5.39 55.79 55.79 0 0 1-24-5.39Z" fill="#000" fill-opacity=".1"/><g transform="translate(0 170)"><path d="M132.5 51.83c18.5 0 33.5-9.62 33.5-21.48 0-.36-.01-.7-.04-1.06A72 72 0 0 1 232 101.04V110H32v-8.95a72 72 0 0 1 67.05-71.83c-.03.37-.05.75-.05 1.13 0 11.86 15 21.48 33.5 21.48Z" fill="#ff5c5c"/><path d="M132.5 58.76c21.89 0 39.63-12.05 39.63-26.91 0-.6-.02-1.2-.08-1.8-2-.33-4.03-.59-6.1-.76.04.35.05.7.05 1.06 0 11.86-15 21.48-33.5 21.48S99 42.2 99 30.35c0-.38.02-.76.05-1.13-2.06.14-4.08.36-6.08.67-.07.65-.1 1.3-.1 1.96 0 14.86 17.74 26.91 39.63 26.91Z" fill="#000" fill-opacity=".08"/></g><g transform="translate(78 134)"><path fill-rule="evenodd" clip-rule="evenodd" d="M34 38.86C35.14 24.88 38.24 13.01 54 13c15.76 0 18.92 11.94 20 26 .08 1.12-.83 2-1.96 2-6.69 0-9.37-2-18.05-2-8.7 0-13.24 2-17.9 2-1.15 0-2.2-.74-2.1-2.14Z" fill="#000" fill-opacity=".7"/><path d="M67.02 17.57c-.61.28-1.3.43-2.02.43H44c-.98 0-1.9-.28-2.67-.77C44.23 14.57 48.28 13 54 13c5.95 0 10.1 1.7 13.02 4.57Z" fill="#fff"/><path d="M69.8 40.92a44.2 44.2 0 0 1-5.54-.82c-2.73-.53-5.65-1.1-10.27-1.1-5.02 0-8.66.66-11.74 1.23-1.45.26-2.77.5-4.06.65A11 11 0 0 1 54 33.2a11 11 0 0 1 15.8 7.72Z" fill="#FF4F6D"/></g><g transform="translate(104 122)"><path fill-rule="evenodd" clip-rule="evenodd" d="M16 8c0 4.42 5.37 8 12 8s12-3.58 12-8" fill="#000" fill-opacity=".16"/></g><g transform="translate(76 90)"><g fill="#000" fill-opacity=".6"><path d="M36 22a6 6 0 1 1-12 0 6 6 0 0 1 12 0Z"/><path fill-rule="evenodd" clip-rule="evenodd" d="M70.6 24.96c1.59-3.92 5.55-6.86 10.37-7.2 4.8-.33 9.12 2 11.24 5.64.63 1.09-.1 2.06-.93 1.43-2.6-1.93-6.15-3-10-2.73A15.13 15.13 0 0 0 71.95 26c-.84.78-1.81.1-1.35-1.04Z"/></g></g><g transform="translate(76 82)"><path d="M38.03 5.6c-1.48 8.38-14.1 14.17-23.24 10.42a2.04 2.04 0 0 0-2.64 1c-.43.97.04 2.1 1.05 2.5 11.45 4.7 26.84-2.37 28.76-13.3a1.92 1.92 0 0 0-1.64-2.2 2 2 0 0 0-2.3 1.57ZM73.97 5.6c1.48 8.38 14.1 14.17 23.24 10.42 1.02-.41 2.2.03 2.63 1 .43.97-.04 2.1-1.05 2.5-11.44 4.7-26.84-2.37-28.76-13.3a1.92 1.92 0 0 1 1.64-2.2 2 2 0 0 1 2.3 1.57Z" fill="#000" fill-opacity=".6"/></g><g transform="translate(-1)"><path d="m175.83 55.92-.03.02c.76.88 1.49 1.78 2.19 2.7a55.74 55.74 0 0 1 11 33.36v5.5c0-15.77-6.69-29.98-17.4-39.93-11.58 3.77-49.58 14.27-77.63.42A54.35 54.35 0 0 0 77 97.5V92c0-12.5 4.1-24.04 11.01-33.35.71-.94 1.45-1.86 2.22-2.75l-.02-.02A55.88 55.88 0 0 1 133 36a55.88 55.88 0 0 1 42.82 19.92Z" fill="#000" fill-opacity=".16"/><path d="M92.54 53.29A55.81 55.81 0 0 0 77 91.99v6.17a11.97 11.97 0 0 0-6.49 3.34l.7-17.37a45.92 45.92 0 0 1 17.37-34.17c-2.2-3.84-1.45-10.33 7.8-13.1 5.07-1.5 7.57-5.08 10.24-8.88 3.5-5 7.27-10.37 17.48-11.92 9.87-1.5 13.23-.88 17.05-.18 3.13.57 6.58 1.2 14.2.76 9.85-.57 16.86-4 21.43-6.22 3.26-1.6 5.27-2.58 6.17-1.47 15.42 18.9 6.97 33.8-6.2 41.96A45.9 45.9 0 0 1 193 86v13.6c-1.22-.7-2.56-1.2-4-1.43V92c0-15.26-6.1-29.09-16-39.19-7.76 2.75-50.39 16.55-80.46.48ZM223.61 226.05c3.06 5.6 4.05 11.12 3.5 16.38A72.02 72.02 0 0 0 161 199h-4v-18.39a56.03 56.03 0 0 0 31.8-45.74c1.5-.23 2.93-.74 4.2-1.47v20.7c0 20.77 11.47 39.79 22.15 57.47 2.97 4.93 5.88 9.75 8.46 14.48ZM68.7 146.5l.66-16.35a12 12 0 0 0 7.85 4.72A56.03 56.03 0 0 0 109 180.6V199h-4c-11.2 0-21.8 2.56-31.25 7.12-2.99-18.29-4.3-38.68-5.05-59.62Z" fill="#4a312c"/><path fill-rule="evenodd" clip-rule="evenodd" d="M90.88 52.36c33.22 19.3 83.37 0 83.37 0 14.53-7.77 25.08-23.32 8.7-43.4-2.17-2.66-10.7 6.72-27.6 7.7-16.9.97-13.27-3.31-31.25-.59-17.97 2.73-15.99 17.3-27.72 20.8-11.73 3.5-9.8 13-5.5 15.5Z" fill="#fff" fill-opacity=".2"/></g><g transform="translate(49 72)"></g><g transform="translate(62 42)"></g></g></g></svg>