<svg xmlns="http://www.w3.org/2000/svg" viewBox="0 0 280 280" fill="none" shape-rendering="auto"><metadata xmlns:rdf="http://www.w3.org/1999/02/22-rdf-syntax-ns#" xmlns:xsi="http://www.w3.org/2001/XMLSchema-instance" xmlns:dc="http://purl.org/dc/elements/1.1/" xmlns:dcterms="http://purl.org/dc/terms/"><rdf:RDF><rdf:Description><dc:title>Avataaars</dc:title><dc:creator>Pablo Stanley</dc:creator><dc:source xsi:type="dcterms:URI">https://avataaars.com/</dc:source><dcterms:license xsi:type="dcterms:URI">https://avataaars.com/</dcterms:license><dc:rights>Remix of „Avataaars” (https://avataaars.com/) by „Pablo Stanley”, licensed under „Free for personal and commercial use” (https://avataaars.com/)</dc:rights></rdf:Description></rdf:RDF></metadata><mask id="viewboxMask"><rect width="280" height="280" rx="0" ry="0" x="0" y="0" fill="#fff" /></mask><g mask="url(#viewboxMask)"><g transform="translate(8)"><path d="M132 36a56 56 0 0 0-56 56v6.17A12 12 0 0 0 66 110v14a12 12 0 0 0 10.3 11.88 56.04 56.04 0 0 0 31.7 44.73v18.4h-4a72 72 0 0 0-72 72v9h200v-9a72 72 0 0 0-72-72h-4v-18.39a56.04 56.04 0 0 0 31.7-44.73A12 12 0 0 0 198 124v-14a12 12 0 0 0-10-11.83V92a56 56 0 0 0-56-56Z" fill="#f8d25c"/><path d="M108 180.61v8a55.79 55.79 0 0 0 24 5.39c8.59 0 16.73-1.93 24-5.39v-8a55.79 55.79 0 0 1-24 5.39 55.79 55.79 0 0 1-24-5.39Z" fill="#000" fill-opacity=".1"/><g transform="translate(0 170)"><path d="M108 14.7c-15.52 3.68-27.1 10.83-30.77 19.44A72.02 72.02 0 0 0 32 101v9h200v-9a72.02 72.02 0 0 0-45.23-66.86C183.1 25.53 171.52 18.38 156 14.7V32a24 24 0 1 1-48 0V14.7Z" fill="#25557c"/><path d="M102 63.34a67.1 67.1 0 0 1-7-2.82V110h7V63.34ZM162 63.34a67.04 67.04 0 0 0 7-2.82V98.5a3.5 3.5 0 1 1-7 0V63.34Z" fill="#F4F4F4"/><path d="M187.62 34.49a71.79 71.79 0 0 1 10.83 5.63C197.11 55.62 167.87 68 132 68c30.93 0 56-13.43 56-30 0-1.19-.13-2.36-.38-3.51ZM76.38 34.49a16.48 16.48 0 0 0-.38 3.5c0 16.58 25.07 30 56 30-35.87 0-65.1-12.38-66.45-27.88a71.79 71.79 0 0 1 10.83-5.63Z" fill="#000" fill-opacity=".16"/></g><g transform="translate(78 134)"><path fill-rule="evenodd" clip-rule="evenodd" d="M35.12 29.87a19 19 0 0 1 37.77.09c.08.77-.77 2.04-1.85 2.04H37.1C36 32 35 30.82 35.12 29.87Z" fill="#000" fill-opacity=".7"/><path d="M69.59 32H38.4a11 11 0 0 1 15.6-6.8A11 11 0 0 1 69.59 32Z" fill="#FF4F6D"/><path d="M66.57 17.75A5 5 0 0 1 65 18H44c-.8 0-1.57-.2-2.24-.53A18.92 18.92 0 0 1 54 13c4.82 0 9.22 1.8 12.57 4.75Z" fill="#fff"/></g><g transform="translate(104 122)"><path fill-rule="evenodd" clip-rule="evenodd" d="M16 8c0 4.42 5.37 8 12 8s12-3.58 12-8" fill="#000" fill-opacity=".16"/></g><g transform="translate(76 90)"><path d="M44 22a14 14 0 1 1-28 0 14 14 0 0 1 28 0ZM96 22a14 14 0 1 1-28 0 14 14 0 0 1 28 0Z" fill="#fff"/><path d="M36 14a6 6 0 1 1-12 0 6 6 0 0 1 12 0ZM88 14a6 6 0 1 1-12 0 6 6 0 0 1 12 0Z" fill="#000" fill-opacity=".7"/></g><g transform="translate(76 82)"><path d="M38.03 5.6c-1.48 8.38-14.1 14.17-23.24 10.42a2.04 2.04 0 0 0-2.64 1c-.43.97.04 2.1 1.05 2.5 11.45 4.7 26.84-2.37 28.76-13.3a1.92 1.92 0 0 0-1.64-2.2 2 2 0 0 0-2.3 1.57ZM73.97 5.6c1.48 8.38 14.1 14.17 23.24 10.42 1.02-.41 2.2.03 2.63 1 .43.97-.04 2.1-1.05 2.5-11.44 4.7-26.84-2.37-28.76-13.3a1.92 1.92 0 0 1 1.64-2.2 2 2 0 0 1 2.3 1.57Z" fill="#000" fill-opacity=".6"/></g><g transform="translate(-1)"><path d="M94.7 69.39c-4.62 24.47-16 42.72-25.74 41a7.49 7.49 0 0 1-1.96-.63V89a65.93 65.93 0 0 1 28.4-54.24c.48 2.39.83 4.99 1.05 7.77a262.85 262.85 0 0 1 36.9-2.44c13.27 0 25.67.85 36.22 2.34.22-2.74.57-5.3 1.05-7.67A65.92 65.92 0 0 1 199 89v20.76c-.62.3-1.28.52-1.95.63-9.72 1.72-21.09-16.48-25.73-40.9a260.5 260.5 0 0 1-37.97 2.59c-14.3 0-27.6-1-38.65-2.7Z" fill="#000" fill-opacity=".16"/><path d="M133 0c-11.21 0-21.9 2.2-31.69 6.18-.92-.12-1.86-.18-2.81-.18-6.7 0-12.77 3.07-17.2 8.06-18.04.93-33.46 13.3-40.77 30.9C32.5 49.56 27 59.04 27 70c0 .58.02 1.15.05 1.73A62.11 62.11 0 0 0 17 106c0 7.33 1.21 14.34 3.43 20.78-.28 1.69-.43 3.44-.43 5.22 0 9.45 4.1 17.81 10.38 22.88C37.74 172.68 53.6 185 72 185c1.5 0 2.98-.08 4.44-.24C81.9 189.9 88.88 193 96.5 193c4.44 0 8.67-1.05 12.5-2.95v-9.44a56.03 56.03 0 0 1-31.8-45.74A12 12 0 0 1 67 123v-13c0-1.72.36-3.36 1.02-4.84.3.1.62.18.94.23 9.73 1.72 21.12-16.53 25.74-41 11.05 1.7 24.35 2.7 38.65 2.7 14.02 0 27.06-.96 37.97-2.6 4.64 24.41 16.01 42.6 25.73 40.9.32-.06.63-.14.94-.23a11.96 11.96 0 0 1 1 4.83v13a12 12 0 0 1-10.2 11.87A56.03 56.03 0 0 1 157 180.6v9.44a28.06 28.06 0 0 0 12.5 2.95c7.62 0 14.61-3.1 20.06-8.24 1.46.16 2.94.24 4.44.24 18.39 0 34.26-12.32 41.62-30.12C241.9 149.81 246 141.45 246 132c0-1.78-.15-3.53-.43-5.22A63.91 63.91 0 0 0 249 106a62.11 62.11 0 0 0-10.05-34.27c.04-.58.05-1.15.05-1.73 0-10.96-5.5-20.44-13.53-25.04-7.31-17.6-22.73-29.97-40.77-30.9C180.27 9.07 174.2 6 167.5 6c-.95 0-1.89.06-2.81.18A83.76 83.76 0 0 0 133 0Z" fill="#4a312c"/></g><g transform="translate(49 72)"></g><g transform="translate(62 42)"><path d="M71 58.11c-11.04 0-12.63-9.08-35.33-10.37C13 46.72 5.82 53.44 5.77 58.11c.04 4.3-1.12 15.45 13.6 28.52 14.77 15.51 29.9 10.25 35.32 5.18 5.45-2.34 11.65-23.35 16.3-23.33 4.67.02 10.87 21 16.32 23.33 5.42 5.07 20.55 10.33 35.33-5.18 14.71-13.07 13.55-24.23 13.58-28.52-.03-4.66-7.2-11.4-29.9-10.37C83.63 49.03 82.05 58.11 71 58.11Z" fill="#000" fill-opacity=".1"/><path d="M71 56.11c-11.04 0-12.63-9.08-35.33-10.37C13 44.72 5.82 51.44 5.77 56.11c.04 4.3-1.12 15.45 13.6 28.52 14.77 15.51 29.9 10.25 35.32 5.18 5.45-2.34 11.65-23.35 16.3-23.33 4.67.02 10.87 21 16.32 23.33 5.42 5.07 20.55 10.33 35.33-5.18 14.71-13.07 13.55-24.23 13.58-28.52-.03-4.66-7.2-11.4-29.9-10.37C83.63 47.03 82.05 56.11 71 56.11Z" fill="#5199e4"/><path d="M32.95 50.93c14.27-.29 27.56 7.9 27.18 15.55-.22 5.05-2.93 22.83-19.02 23.33-16.1.5-24.81-17.79-24.46-25.92.2-3.51 2.05-12.67 16.3-12.96ZM109.05 50.93c-14.27-.29-27.56 7.9-27.18 15.55.22 5.05 2.93 22.83 19.02 23.33 16.1.5 24.81-17.79 24.46-25.92-.2-3.51-2.05-12.67-16.3-12.96Z" fill="#2F383B"/></g></g></g></svg>