<svg xmlns="http://www.w3.org/2000/svg" viewBox="0 0 280 280" fill="none" shape-rendering="auto"><metadata xmlns:rdf="http://www.w3.org/1999/02/22-rdf-syntax-ns#" xmlns:xsi="http://www.w3.org/2001/XMLSchema-instance" xmlns:dc="http://purl.org/dc/elements/1.1/" xmlns:dcterms="http://purl.org/dc/terms/"><rdf:RDF><rdf:Description><dc:title>Avataaars</dc:title><dc:creator>Pablo Stanley</dc:creator><dc:source xsi:type="dcterms:URI">https://avataaars.com/</dc:source><dcterms:license xsi:type="dcterms:URI">https://avataaars.com/</dcterms:license><dc:rights>Remix of „Avataaars” (https://avataaars.com/) by „Pablo Stanley”, licensed under „Free for personal and commercial use” (https://avataaars.com/)</dc:rights></rdf:Description></rdf:RDF></metadata><mask id="viewboxMask"><rect width="280" height="280" rx="0" ry="0" x="0" y="0" fill="#fff" /></mask><g mask="url(#viewboxMask)"><g transform="translate(8)"><path d="M132 36a56 56 0 0 0-56 56v6.17A12 12 0 0 0 66 110v14a12 12 0 0 0 10.3 11.88 56.04 56.04 0 0 0 31.7 44.73v18.4h-4a72 72 0 0 0-72 72v9h200v-9a72 72 0 0 0-72-72h-4v-18.39a56.04 56.04 0 0 0 31.7-44.73A12 12 0 0 0 198 124v-14a12 12 0 0 0-10-11.83V92a56 56 0 0 0-56-56Z" fill="#fd9841"/><path d="M108 180.61v8a55.79 55.79 0 0 0 24 5.39c8.59 0 16.73-1.93 24-5.39v-8a55.79 55.79 0 0 1-24 5.39 55.79 55.79 0 0 1-24-5.39Z" fill="#000" fill-opacity=".1"/><g transform="translate(0 170)"><path d="M108 14.7c-15.52 3.68-27.1 10.83-30.77 19.44A72.02 72.02 0 0 0 32 101v9h200v-9a72.02 72.02 0 0 0-45.23-66.86C183.1 25.53 171.52 18.38 156 14.7V32a24 24 0 1 1-48 0V14.7Z" fill="#5199e4"/><path d="M102 63.34a67.1 67.1 0 0 1-7-2.82V110h7V63.34ZM162 63.34a67.04 67.04 0 0 0 7-2.82V98.5a3.5 3.5 0 1 1-7 0V63.34Z" fill="#F4F4F4"/><path d="M187.62 34.49a71.79 71.79 0 0 1 10.83 5.63C197.11 55.62 167.87 68 132 68c30.93 0 56-13.43 56-30 0-1.19-.13-2.36-.38-3.51ZM76.38 34.49a16.48 16.48 0 0 0-.38 3.5c0 16.58 25.07 30 56 30-35.87 0-65.1-12.38-66.45-27.88a71.79 71.79 0 0 1 10.83-5.63Z" fill="#000" fill-opacity=".16"/></g><g transform="translate(78 134)"><path fill-rule="evenodd" clip-rule="evenodd" d="M40.06 27.72C40.7 20.7 46.7 16 54 16c7.34 0 13.36 4.75 13.95 11.85.03.38-.87.67-1.32.45-5.54-2.77-9.75-4.16-12.63-4.16-2.84 0-7 1.36-12.45 4.07-.5.25-1.53-.07-1.5-.49Z" fill="#000" fill-opacity=".7"/></g><g transform="translate(104 122)"><path fill-rule="evenodd" clip-rule="evenodd" d="M16 8c0 4.42 5.37 8 12 8s12-3.58 12-8" fill="#000" fill-opacity=".16"/></g><g transform="translate(76 90)"><path d="M25 27s-6 7.27-6 11.27a6 6 0 1 0 12 0c0-4-6-11.27-6-11.27Z" fill="#92D9FF"/><path d="M36 22a6 6 0 1 1-12 0 6 6 0 0 1 12 0ZM88 22a6 6 0 1 1-12 0 6 6 0 0 1 12 0Z" fill="#000" fill-opacity=".6"/></g><g transform="translate(76 82)"><path d="M38.03 5.6c-1.48 8.38-14.1 14.17-23.24 10.42a2.04 2.04 0 0 0-2.64 1c-.43.97.04 2.1 1.05 2.5 11.45 4.7 26.84-2.37 28.76-13.3a1.92 1.92 0 0 0-1.64-2.2 2 2 0 0 0-2.3 1.57ZM73.97 5.6c1.48 8.38 14.1 14.17 23.24 10.42 1.02-.41 2.2.03 2.63 1 .43.97-.04 2.1-1.05 2.5-11.44 4.7-26.84-2.37-28.76-13.3a1.92 1.92 0 0 1 1.64-2.2 2 2 0 0 1 2.3 1.57Z" fill="#000" fill-opacity=".6"/></g><g transform="translate(-1)"><path d="M157 180.61V199h4a71.7 71.7 0 0 1 46 16.6V92a74 74 0 0 0-148 0v183.72A28 28 0 0 0 83 248v-45.58a71.95 71.95 0 0 1 22-3.42h4v-18.39a56.24 56.24 0 0 1-26-25.36V93.27a150 150 0 0 0 28.34-12.77c15.4-8.9 28.1-19.56 36.73-30.1 1.76 5.2 4.1 10.4 7.04 15.48 8.78 15.2 21.12 26.35 33.9 32.04v.25c.4.06.8.15 1.18.26.77.32 1.55.62 2.33.9A12 12 0 0 1 199 110v13a12 12 0 0 1-10.22 11.87A56.03 56.03 0 0 1 157 180.6Z" fill="#d6b370"/><path d="M157 199v-18.39a56.03 56.03 0 0 0 31.8-45.74A12 12 0 0 0 199 123v-13a12 12 0 0 0-6.5-10.66 44.57 44.57 0 0 0 14.5 2.8v113.47A71.7 71.7 0 0 0 161 199h-4ZM83 202.42v-47.17a56.24 56.24 0 0 0 26 25.36V199h-4c-7.67 0-15.07 1.2-22 3.42ZM189 97.92v.25c.4.06.8.15 1.18.26l-1.18-.51Z" fill="#000" fill-opacity=".27"/></g><g transform="translate(49 72)"></g><g transform="translate(62 42)"></g></g></g></svg>