<svg xmlns="http://www.w3.org/2000/svg" viewBox="0 0 280 280" fill="none" shape-rendering="auto"><metadata xmlns:rdf="http://www.w3.org/1999/02/22-rdf-syntax-ns#" xmlns:xsi="http://www.w3.org/2001/XMLSchema-instance" xmlns:dc="http://purl.org/dc/elements/1.1/" xmlns:dcterms="http://purl.org/dc/terms/"><rdf:RDF><rdf:Description><dc:title>Avataaars</dc:title><dc:creator>Pablo Stanley</dc:creator><dc:source xsi:type="dcterms:URI">https://avataaars.com/</dc:source><dcterms:license xsi:type="dcterms:URI">https://avataaars.com/</dcterms:license><dc:rights>Remix of „Avataaars” (https://avataaars.com/) by „Pablo Stanley”, licensed under „Free for personal and commercial use” (https://avataaars.com/)</dc:rights></rdf:Description></rdf:RDF></metadata><mask id="viewboxMask"><rect width="280" height="280" rx="0" ry="0" x="0" y="0" fill="#fff" /></mask><g mask="url(#viewboxMask)"><g transform="translate(8)"><path d="M132 36a56 56 0 0 0-56 56v6.17A12 12 0 0 0 66 110v14a12 12 0 0 0 10.3 11.88 56.04 56.04 0 0 0 31.7 44.73v18.4h-4a72 72 0 0 0-72 72v9h200v-9a72 72 0 0 0-72-72h-4v-18.39a56.04 56.04 0 0 0 31.7-44.73A12 12 0 0 0 198 124v-14a12 12 0 0 0-10-11.83V92a56 56 0 0 0-56-56Z" fill="#f8d25c"/><path d="M108 180.61v8a55.79 55.79 0 0 0 24 5.39c8.59 0 16.73-1.93 24-5.39v-8a55.79 55.79 0 0 1-24 5.39 55.79 55.79 0 0 1-24-5.39Z" fill="#000" fill-opacity=".1"/><g transform="translate(0 170)"><path d="M100.37 29.14a27.6 27.6 0 0 1 7.63-7.57v15.3c0 5.83 3.98 10.98 10.08 14.13l-.08.06.9 2.86c3.89 2 8.35 3.13 13.1 3.13s9.21-1.13 13.1-3.13l.9-2.86-.08-.06c6.1-3.15 10.08-8.3 10.08-14.12v-14.6a27.1 27.1 0 0 1 6.6 6.82 72 72 0 0 1 69.4 71.95V110H32v-8.95a72 72 0 0 1 68.37-71.9Z" fill="#ff5c5c"/><path d="M108 21.57c-6.77 4.6-11 11.17-11 18.46 0 7.4 4.36 14.05 11.3 18.66l6.12-4.81 4.58.33-1-3.15.08-.06c-6.1-3.15-10.08-8.3-10.08-14.12v-15.3ZM156 36.88c0 5.82-3.98 10.97-10.08 14.12l.08.06-1 3.15 4.58-.33 5.65 4.45c6.63-4.6 10.77-11.1 10.77-18.3 0-6.92-3.82-13.2-10-17.75v14.6Z" fill="#fff" fill-opacity=".75"/></g><g transform="translate(78 134)"><path fill-rule="evenodd" clip-rule="evenodd" d="M34 38.86C35.14 24.88 38.24 13.01 54 13c15.76 0 18.92 11.94 20 26 .08 1.12-.83 2-1.96 2-6.69 0-9.37-2-18.05-2-8.7 0-13.24 2-17.9 2-1.15 0-2.2-.74-2.1-2.14Z" fill="#000" fill-opacity=".7"/><path d="M67.02 17.57c-.61.28-1.3.43-2.02.43H44c-.98 0-1.9-.28-2.67-.77C44.23 14.57 48.28 13 54 13c5.95 0 10.1 1.7 13.02 4.57Z" fill="#fff"/><path d="M69.8 40.92a44.2 44.2 0 0 1-5.54-.82c-2.73-.53-5.65-1.1-10.27-1.1-5.02 0-8.66.66-11.74 1.23-1.45.26-2.77.5-4.06.65A11 11 0 0 1 54 33.2a11 11 0 0 1 15.8 7.72Z" fill="#FF4F6D"/></g><g transform="translate(104 122)"><path fill-rule="evenodd" clip-rule="evenodd" d="M16 8c0 4.42 5.37 8 12 8s12-3.58 12-8" fill="#000" fill-opacity=".16"/></g><g transform="translate(76 90)"><path d="M36 22a6 6 0 1 1-12 0 6 6 0 0 1 12 0ZM88 22a6 6 0 1 1-12 0 6 6 0 0 1 12 0Z" fill="#000" fill-opacity=".6"/></g><g transform="translate(76 82)"><path d="M38.03 5.6c-1.48 8.38-14.1 14.17-23.24 10.42a2.04 2.04 0 0 0-2.64 1c-.43.97.04 2.1 1.05 2.5 11.45 4.7 26.84-2.37 28.76-13.3a1.92 1.92 0 0 0-1.64-2.2 2 2 0 0 0-2.3 1.57ZM73.97 5.6c1.48 8.38 14.1 14.17 23.24 10.42 1.02-.41 2.2.03 2.63 1 .43.97-.04 2.1-1.05 2.5-11.44 4.7-26.84-2.37-28.76-13.3a1.92 1.92 0 0 1 1.64-2.2 2 2 0 0 1 2.3 1.57Z" fill="#000" fill-opacity=".6"/></g><g transform="translate(-1)"><path d="M78 98c-.33 1.22-1.65 1.49-2 0-.72-10.3 0-62.27 57-63 57-.73 57.72 52.7 57 63-.35 1.49-1.67 1.22-2 0 .46-1.55-3.3-28.75-13-36-1.76-1.22-7.25-2.39-14.64-3.26L164 50l-6.98 8.38c-7.03-.7-15.36-1.13-23.7-1.13C114 57.23 94.61 59.48 91 62c-9.7 7.25-13.46 34.45-13 36Z" fill="#c93305"/></g><g transform="translate(49 72)"></g><g transform="translate(62 42)"><path fill-rule="evenodd" clip-rule="evenodd" d="M39.25 52c-21.13 0-28.63 5.17-29.32 5.86A2.93 2.93 0 0 0 7 60.79v2.92a2.93 2.93 0 0 0 2.93 2.93s5.87 0 5.87 2.93c0 .2 0 .34.03.45-.03.82-.04 1.65-.04 2.48C15.78 85.34 24.07 93 37.96 93h2.75c14.68 0 24.93-8.43 24.93-20.5 0-1.44-.04-2.88-.16-4.28l1.45-.73c.57-.28 1.2-.5 1.87-.64 1.85-.39 3.93-.23 5.95.28.73.18 1.25.36 1.5.46l1.25.5a50.58 50.58 0 0 0-.16 4.4c0 12.84 8.29 20.5 22.17 20.5h2.75c14.68 0 24.93-8.43 24.93-20.5 0-.83 0-1.66-.04-2.48.02-.11.03-.26.03-.45 0-2.93 5.87-2.93 5.87-2.93 1.62 0 2.93-1.3 2.93-2.93V60.8a2.93 2.93 0 0 0-2.93-2.93c-.69-.69-8.2-5.86-29.32-5.86h-2.93c-1.83 0-3.52.07-5.08.21-9.38.56-14.46 2.19-19.63 4.76-.54.2-2.38.79-4.53.88a16.56 16.56 0 0 1-4.77-.92l-.42-.2v-.01c-4.9-2.45-8.36-4.18-20.55-4.61-1.15-.07-2.37-.1-3.66-.1h-2.93Zm-1.12 5.86h1.12c2.44 0 4.59.03 6.48.1 14.05.84 14.05 6.95 14.05 14.54 0 8.62-7.84 14.64-19.06 14.64h-2.75c-13.5 0-16.32-7.96-16.32-14.64 0-8 0-14.37 16.48-14.64Zm26.11 4.36.1.03-.07.03-.03-.06Zm14.52 0-.07.03.04.02c0-.02 0-.03.02-.05Zm16.7-4.12a125.22 125.22 0 0 1 9.4-.24c16.49.27 16.49 6.63 16.49 14.64 0 8.62-7.84 14.64-19.07 14.64h-2.75c-13.48 0-16.31-7.96-16.31-14.64 0-7.25 0-13.15 12.24-14.4Z" fill="#000" fill-opacity=".1"/><path d="M40.72 88.07c13.74 0 22-7.87 22-17.57s-1.3-17.57-20.54-17.57h-2.93c-19.25 0-20.53 7.86-20.53 17.57 0 9.7 5.5 17.57 19.25 17.57h2.75Z" fill="#000" fill-opacity=".7"/><path d="M40.72 88.07c13.74 0 22-7.87 22-17.57s-1.3-17.57-20.54-17.57h-2.93c-19.25 0-20.53 7.86-20.53 17.57 0 9.7 5.5 17.57 19.25 17.57h2.75Z" fill="url(#accessoriesWayfarers-a)" style="mix-blend-mode:screen"/><path d="M102.28 88.07c13.75 0 22-7.87 22-17.57S123 52.93 103.75 52.93h-2.93c-19.25 0-20.53 7.86-20.53 17.57 0 9.7 5.5 17.57 19.24 17.57h2.75Z" fill="#000" fill-opacity=".7"/><path d="M102.28 88.07c13.75 0 22-7.87 22-17.57S123 52.93 103.75 52.93h-2.93c-19.25 0-20.53 7.86-20.53 17.57 0 9.7 5.5 17.57 19.24 17.57h2.75Z" fill="url(#accessoriesWayfarers-b)" style="mix-blend-mode:screen"/><path fill-rule="evenodd" clip-rule="evenodd" d="M39.25 50c-21.13 0-28.63 5.17-29.32 5.86A2.93 2.93 0 0 0 7 58.79v2.92a2.93 2.93 0 0 0 2.93 2.93s5.87 0 5.87 2.93c0 .2 0 .34.03.45-.03.82-.04 1.65-.04 2.48C15.78 83.34 24.07 91 37.96 91h2.75c14.68 0 24.93-8.43 24.93-20.5 0-1.44-.04-2.88-.16-4.28l1.45-.73c.57-.28 1.2-.5 1.87-.64 1.85-.39 3.93-.23 5.95.28.73.18 1.25.36 1.5.46l1.25.5a50.58 50.58 0 0 0-.16 4.4c0 12.84 8.29 20.5 22.17 20.5h2.75c14.68 0 24.93-8.43 24.93-20.5 0-.83 0-1.66-.04-2.48.02-.11.03-.26.03-.45 0-2.93 5.87-2.93 5.87-2.93 1.62 0 2.93-1.3 2.93-2.93V58.8a2.93 2.93 0 0 0-2.93-2.93c-.69-.69-8.2-5.86-29.32-5.86h-2.93c-1.83 0-3.52.07-5.08.21-9.38.56-14.46 2.19-19.63 4.76-.54.2-2.38.79-4.53.88a16.56 16.56 0 0 1-4.77-.92l-.42-.2v-.01c-4.9-2.45-8.36-4.18-20.55-4.61-1.15-.07-2.37-.1-3.66-.1h-2.93Zm-1.12 5.86h1.12c2.44 0 4.59.03 6.48.1 14.05.84 14.05 6.95 14.05 14.54 0 8.62-7.84 14.64-19.06 14.64h-2.75c-13.5 0-16.32-7.96-16.32-14.64 0-8 0-14.37 16.48-14.64Zm26.11 4.36.1.03-.07.03-.03-.06Zm14.52 0-.07.03.04.02c0-.02 0-.03.02-.05Zm16.7-4.12a125.22 125.22 0 0 1 9.4-.24c16.49.27 16.49 6.63 16.49 14.64 0 8.62-7.84 14.64-19.07 14.64h-2.75c-13.48 0-16.31-7.96-16.31-14.64 0-7.25 0-13.15 12.24-14.4Z" fill="#65c9ff"/><defs><linearGradient id="accessoriesWayfarers-a" x1="80.29" y1="52.93" x2="80.29" y2="88.07" gradientUnits="userSpaceOnUse"><stop stop-color="#fff" stop-opacity=".5"/><stop offset=".71" stop-opacity=".5"/></linearGradient><linearGradient id="accessoriesWayfarers-b" x1="80.29" y1="52.93" x2="80.29" y2="88.07" gradientUnits="userSpaceOnUse"><stop stop-color="#fff" stop-opacity=".5"/><stop offset=".71" stop-opacity=".5"/></linearGradient></defs></g></g></g></svg>