<svg xmlns="http://www.w3.org/2000/svg" viewBox="0 0 280 280" fill="none" shape-rendering="auto"><metadata xmlns:rdf="http://www.w3.org/1999/02/22-rdf-syntax-ns#" xmlns:xsi="http://www.w3.org/2001/XMLSchema-instance" xmlns:dc="http://purl.org/dc/elements/1.1/" xmlns:dcterms="http://purl.org/dc/terms/"><rdf:RDF><rdf:Description><dc:title>Avataaars</dc:title><dc:creator>Pablo Stanley</dc:creator><dc:source xsi:type="dcterms:URI">https://avataaars.com/</dc:source><dcterms:license xsi:type="dcterms:URI">https://avataaars.com/</dcterms:license><dc:rights>Remix of „Avataaars” (https://avataaars.com/) by „Pablo Stanley”, licensed under „Free for personal and commercial use” (https://avataaars.com/)</dc:rights></rdf:Description></rdf:RDF></metadata><mask id="viewboxMask"><rect width="280" height="280" rx="0" ry="0" x="0" y="0" fill="#fff" /></mask><g mask="url(#viewboxMask)"><g transform="translate(8)"><path d="M132 36a56 56 0 0 0-56 56v6.17A12 12 0 0 0 66 110v14a12 12 0 0 0 10.3 11.88 56.04 56.04 0 0 0 31.7 44.73v18.4h-4a72 72 0 0 0-72 72v9h200v-9a72 72 0 0 0-72-72h-4v-18.39a56.04 56.04 0 0 0 31.7-44.73A12 12 0 0 0 198 124v-14a12 12 0 0 0-10-11.83V92a56 56 0 0 0-56-56Z" fill="#fd9841"/><path d="M108 180.61v8a55.79 55.79 0 0 0 24 5.39c8.59 0 16.73-1.93 24-5.39v-8a55.79 55.79 0 0 1-24 5.39 55.79 55.79 0 0 1-24-5.39Z" fill="#000" fill-opacity=".1"/><g transform="translate(0 170)"><path d="M132.5 54C151 54 166 44.37 166 32.5c0-1.1-.13-2.18-.38-3.23A72 72 0 0 1 232 101.05V110H32v-8.95A72 72 0 0 1 99.4 29.2a14.1 14.1 0 0 0-.4 3.3C99 44.37 114 54 132.5 54Z" fill="#e6e6e6"/><g transform="translate(77 58)"><path fill-rule="evenodd" clip-rule="evenodd" d="M71.76 15.26c1.6-.18 4.79-.55 5.2.98.3 1.09-1.16 2.07-2.26 2.8-.34.24-.64.44-.85.61l-.16.14a25.73 25.73 0 0 1-4.66 3.41 12.85 12.85 0 0 1-2.93 1.08c-.28.07-.43.11-.55.2-.15.11-.23.3-.43.74l-.03.08c-.45 1-.73 2.18-1 3.36-.23 1.02-.47 2.04-.81 2.95-1.7 4.46-5.77 14.8-12.27 10.26-1.7-1.2-2.78-3.3-3.75-5.24-.2-.41-.4-.81-.61-1.2a43.46 43.46 0 0 1-3.38-8.24c-.1-.37-.16-.66-.2-.92-.14-.68-.2-1.04-.93-1.5-.37-.23-.9-.36-1.4-.49-.36-.09-.7-.17-.99-.29a17.05 17.05 0 0 1-4.08-2.44c-1.24-.97-6.11-4.95-2.14-5.7 1.8-.33 4.16-.2 6-.11h.07c2.03.1 4.07.57 5.88 1.54h.01c.9.48 1.22.66 1.54.65.2 0 .38-.08.68-.18.24-.1.55-.2.98-.33-3.32-1.12-6.65-3-8.89-5.78-1.2-1.5-4-7.65-1.9-9.06 1.8-1.2 2.42 2 2.88 4.4.2.97.36 1.81.56 2.17 1.24 2.13 3.28 3.23 5.32 4.33.58.32 1.16.63 1.72.96a12.47 12.47 0 0 1-3.67-5.86l-.08-.3c-.31-1.14-.9-3.28-.44-4.19.52-1.04 1.76-1.1 2.45-.22.41.53.48 1.52.54 2.4a8.63 8.63 0 0 0 2.11 5.23 11.17 11.17 0 0 0 5.68 3.73c5.12 1.26 6.91-4.1 7.6-8.25.04-.24.06-.52.08-.81.05-.93.11-2 .97-2.36 1.37-.6 1.9.74 1.94 1.78.09 2.31-1.06 5.85-2.17 7.84 2.8-1.73 5-4.48 5.9-7.69.1-.37.15-.9.2-1.46.1-1.2.22-2.58.98-3.04 1.54-.92 2.02.92 1.97 2.02-.32 6.52-5.3 12.44-11.49 14.07l.55.28c.95.5.98.53 2.3-.25.9-.53 1.86-.93 2.84-1.24 1.47-.45 3.05-.68 4.58-.81l.54-.06Zm-12.9 9.36c-.07 3.27-3.24 3.04-2.82.1.32-2.32 3.68-2.24 2.82-.1Zm-1.93 9.02c-.5 1.56-4.33 2.12-3.9-.17.37-1.95 4.56-2.03 3.9.17ZM51.7 27c-2.82 0-1.9-4.87 1-3.86 2.27.8 1.33 3.86-1 3.86Z" fill="#fff"/></g></g><g transform="translate(78 134)"><path fill-rule="evenodd" clip-rule="evenodd" d="M40 15a14 14 0 1 0 28 0" fill="#000" fill-opacity=".7"/></g><g transform="translate(104 122)"><path fill-rule="evenodd" clip-rule="evenodd" d="M16 8c0 4.42 5.37 8 12 8s12-3.58 12-8" fill="#000" fill-opacity=".16"/></g><g transform="translate(76 90)"><path d="M36 22a6 6 0 1 1-12 0 6 6 0 0 1 12 0ZM88 22a6 6 0 1 1-12 0 6 6 0 0 1 12 0Z" fill="#000" fill-opacity=".6"/></g><g transform="translate(76 82)"><g fill-rule="evenodd" clip-rule="evenodd" fill="#DADADA"><path d="M57 12.82ZM96.12 7.6c1.46.56 9.19 6.43 7.86 9.16a.8.8 0 0 1-1.29.22 10.63 10.63 0 0 0-1.7-1.19c-5.1-2.84-11.3-1.93-16.73-.91-6.12 1.14-12.11 3.48-18.39 2.67-2.04-.26-6.08-1.22-7.63-2.96-.47-.53-.06-1.38.64-1.43 1.44-.11 2.86-.86 4.33-1.28 3.65-1.03 7.4-1.56 11.11-2.29 6.62-1.3 15.17-4.53 21.8-2Z"/><path d="M58.76 12.76c-1.17.04-2.8 3.56-.56 3.68 2.23.11 1.73-3.72.56-3.68ZM55 12.8c0-.01 0-.01 0 0ZM15.88 7.56c-1.46.56-9.19 6.43-7.86 9.16.24.5.89.6 1.29.22.55-.52 1.58-1.11 1.71-1.18 5.1-2.84 11.3-1.93 16.73-.91 6.12 1.14 12.11 3.48 18.39 2.67 2.04-.26 6.08-1.22 7.63-2.96.47-.53.06-1.38-.64-1.43-1.44-.11-2.86-.86-4.33-1.28-3.65-1.03-7.4-1.56-11.11-2.29-6.62-1.3-15.17-4.53-21.8-2Z"/><path d="M54.97 11.79c1.17.04 2.77 4.5.53 4.67-2.24.18-1.7-4.71-.53-4.67Z"/></g></g><g transform="translate(-1)"><path d="M133 18a74 74 0 0 0-74 74v96c0 8.56 1.45 16.78 4.12 24.42A71.67 71.67 0 0 1 105 199h4v-18.39a56.03 56.03 0 0 1-31.8-45.74A12 12 0 0 1 67 123v-13a12 12 0 0 1 .46-3.3c17.13-6.02 33.75-21.94 43.59-44.04.4-.92.8-1.84 1.18-2.76 4.58 12.23 13.21 21.11 25.89 26.63a87.36 87.36 0 0 1-12.45-20.78c7.98 8.5 18.35 16.74 30.48 23.75 14.33 8.27 28.91 13.56 41.87 15.75.63 1.45.98 3.06.98 4.75v13a12 12 0 0 1-10.2 11.87A56.03 56.03 0 0 1 157 180.6V199h4a71.67 71.67 0 0 1 41.88 13.42A73.9 73.9 0 0 0 207 188V92a74 74 0 0 0-74-74Z" fill="#ecdcbf"/><path d="M111.05 62.66C99.59 88.39 78.95 105.75 59 108.84v4c19.95-3.1 40.59-20.45 52.05-46.18.4-.92.8-1.84 1.18-2.76 4.58 12.23 13.21 21.11 25.89 26.63a78.16 78.16 0 0 1-4.62-6.26c-10.18-5.56-17.27-13.69-21.27-24.37a98.8 98.8 0 0 1-1.18 2.76ZM129.5 73.64a137.34 137.34 0 0 0 26.65 19.86c17.75 10.25 35.9 15.91 50.85 16.78v-4c-14.95-.87-33.1-6.54-50.85-16.78-12.13-7-22.5-15.24-30.48-23.75a98.3 98.3 0 0 0 3.83 7.89Z" fill="#000" fill-opacity=".16"/></g><g transform="translate(49 72)"></g><g transform="translate(62 42)"><g fill-rule="evenodd" clip-rule="evenodd"><path d="M111.71 53.49c4.67.16 8 .88 10.55 4.52 3.01.15 6.25.37 8.98 1.63 3.39 1.56 3.9 5.1-.36 5.59-1.86.2-3.72-.12-5.55-.45l-.19-.03-.33-.06c1.1 9.46-6.21 20.87-14.23 24.35C99.6 93.8 87.34 88.53 81.53 79c-2.62-4.3-4.14-10.51-4.46-15.86-.42-.2-.83-.44-1.23-.67-.38-.22-.76-.44-1.12-.61-2-.98-5.34-1.1-7.5 0-.35.17-.7.37-1.05.58-.42.25-.86.5-1.3.72C64.53 68.5 63.01 74.7 60.4 79c-5.8 9.53-18.07 14.8-29.05 10.04-8.02-3.48-15.33-14.89-14.23-24.35l-.33.06-.2.03c-1.83.33-3.7.66-5.55.45-4.27-.5-3.74-4.03-.36-5.6 2.72-1.25 5.96-1.47 8.97-1.62 2.55-3.63 5.88-4.36 10.55-4.52l23.29-.46c5.19-.14 9.72 0 11.03 4.6a18.7 18.7 0 0 1 6.35-1.25c1.86 0 4.35.45 6.5 1.28 1.3-4.64 5.83-4.77 11.03-4.63l23.3.46Zm-24.03 6.78c-2.37.03-3.5.42-3.9 2.9-.4 2.5 0 5.31.46 7.78.73 3.77 1.92 7.46 4.71 10.22a16.24 16.24 0 0 0 8.32 4.34c.11.03.54.1.96.16.63.1 1.23.18.71.13l-.1-.01h-.06a47.08 47.08 0 0 1 .16 0c3.73.4 7.72.32 10.82-2.04 3.53-2.7 5.95-6.95 7.01-11.2.63-2.48 1.93-8.42-.46-10.4-2.73-2.28-28.63-1.88-28.63-1.88Zm-33.43 0c2.37.03 3.5.42 3.9 2.9.4 2.5 0 5.32-.46 7.78-.73 3.77-1.92 7.46-4.71 10.22a16.23 16.23 0 0 1-8.32 4.35l-.96.15c-.64.1-1.26.19-.68.13-3.73.4-7.74.32-10.85-2.05-3.53-2.69-5.95-6.95-7.01-11.2-.63-2.48-1.93-8.42.46-10.4 2.73-2.28 28.63-1.87 28.63-1.87Zm-10.93 25.5Z" fill="#000" fill-opacity=".1"/><path d="M111.71 51.49c4.67.16 8 .88 10.55 4.52 3.01.15 6.25.37 8.98 1.63 3.39 1.56 3.9 5.1-.36 5.59-1.86.2-3.72-.12-5.55-.45l-.19-.03-.33-.06c1.1 9.46-6.21 20.87-14.23 24.35C99.6 91.8 87.34 86.53 81.53 77c-2.62-4.3-4.14-10.51-4.46-15.86-.42-.2-.83-.44-1.23-.67-.38-.22-.76-.44-1.12-.61-2-.98-5.34-1.1-7.5 0-.35.17-.7.37-1.05.58-.42.25-.86.5-1.3.72C64.53 66.5 63.01 72.7 60.4 77c-5.8 9.53-18.07 14.8-29.05 10.04-8.02-3.48-15.33-14.89-14.23-24.35-.11 0-.22.03-.33.05l-.2.03c-1.83.33-3.7.66-5.55.45-4.27-.5-3.74-4.03-.36-5.6 2.72-1.25 5.96-1.47 8.97-1.62 2.55-3.63 5.88-4.36 10.55-4.52l23.29-.46c5.19-.14 9.72 0 11.03 4.6a18.7 18.7 0 0 1 6.35-1.25c1.86 0 4.35.45 6.5 1.28 1.3-4.64 5.83-4.77 11.03-4.63l23.3.46Zm-24.03 6.78c-2.37.03-3.5.42-3.9 2.9-.4 2.5 0 5.31.46 7.78.73 3.77 1.92 7.46 4.71 10.22a16.24 16.24 0 0 0 8.32 4.34c.11.03.54.1.96.16.63.1 1.23.18.71.13l-.1-.01h-.06a47.08 47.08 0 0 1 .16 0c3.73.4 7.72.32 10.82-2.04 3.53-2.7 5.95-6.95 7.01-11.2.63-2.48 1.93-8.42-.46-10.4-2.73-2.28-28.63-1.88-28.63-1.88Zm-33.43 0c2.37.03 3.5.42 3.9 2.9.4 2.5 0 5.32-.46 7.78-.73 3.77-1.92 7.46-4.71 10.22a16.23 16.23 0 0 1-8.32 4.35l-.96.15c-.64.1-1.26.19-.68.13-3.73.4-7.74.32-10.85-2.05-3.53-2.69-5.95-6.95-7.01-11.2-.63-2.48-1.93-8.42.46-10.4 2.73-2.28 28.63-1.87 28.63-1.87Zm-10.93 25.5Z" fill="#b1e2ff"/></g></g></g></g></svg>