<svg xmlns="http://www.w3.org/2000/svg" viewBox="0 0 280 280" fill="none" shape-rendering="auto"><metadata xmlns:rdf="http://www.w3.org/1999/02/22-rdf-syntax-ns#" xmlns:xsi="http://www.w3.org/2001/XMLSchema-instance" xmlns:dc="http://purl.org/dc/elements/1.1/" xmlns:dcterms="http://purl.org/dc/terms/"><rdf:RDF><rdf:Description><dc:title>Avataaars</dc:title><dc:creator>Pablo Stanley</dc:creator><dc:source xsi:type="dcterms:URI">https://avataaars.com/</dc:source><dcterms:license xsi:type="dcterms:URI">https://avataaars.com/</dcterms:license><dc:rights>Remix of „Avataaars” (https://avataaars.com/) by „Pablo Stanley”, licensed under „Free for personal and commercial use” (https://avataaars.com/)</dc:rights></rdf:Description></rdf:RDF></metadata><mask id="viewboxMask"><rect width="280" height="280" rx="0" ry="0" x="0" y="0" fill="#fff" /></mask><g mask="url(#viewboxMask)"><g transform="translate(8)"><path d="M132 36a56 56 0 0 0-56 56v6.17A12 12 0 0 0 66 110v14a12 12 0 0 0 10.3 11.88 56.04 56.04 0 0 0 31.7 44.73v18.4h-4a72 72 0 0 0-72 72v9h200v-9a72 72 0 0 0-72-72h-4v-18.39a56.04 56.04 0 0 0 31.7-44.73A12 12 0 0 0 198 124v-14a12 12 0 0 0-10-11.83V92a56 56 0 0 0-56-56Z" fill="#edb98a"/><path d="M108 180.61v8a55.79 55.79 0 0 0 24 5.39c8.59 0 16.73-1.93 24-5.39v-8a55.79 55.79 0 0 1-24 5.39 55.79 55.79 0 0 1-24-5.39Z" fill="#000" fill-opacity=".1"/><g transform="translate(0 170)"><path d="M100.37 29.14a27.6 27.6 0 0 1 7.63-7.57v15.3c0 5.83 3.98 10.98 10.08 14.13l-.08.06.9 2.86c3.89 2 8.35 3.13 13.1 3.13s9.21-1.13 13.1-3.13l.9-2.86-.08-.06c6.1-3.15 10.08-8.3 10.08-14.12v-14.6a27.1 27.1 0 0 1 6.6 6.82 72 72 0 0 1 69.4 71.95V110H32v-8.95a72 72 0 0 1 68.37-71.9Z" fill="#262e33"/><path d="M108 21.57c-6.77 4.6-11 11.17-11 18.46 0 7.4 4.36 14.05 11.3 18.66l6.12-4.81 4.58.33-1-3.15.08-.06c-6.1-3.15-10.08-8.3-10.08-14.12v-15.3ZM156 36.88c0 5.82-3.98 10.97-10.08 14.12l.08.06-1 3.15 4.58-.33 5.65 4.45c6.63-4.6 10.77-11.1 10.77-18.3 0-6.92-3.82-13.2-10-17.75v14.6Z" fill="#fff" fill-opacity=".75"/></g><g transform="translate(78 134)"><path fill-rule="evenodd" clip-rule="evenodd" d="M29 15.6C30.41 25.24 41.06 33 54 33c12.97 0 23.65-7.82 25-18.26.1-.4-.22-1.74-2.17-1.74H31.17c-1.79 0-2.3 1.24-2.17 2.6Z" fill="#000" fill-opacity=".7"/><path d="M70 13H39a5 5 0 0 0 5 5h21a5 5 0 0 0 5-5Z" fill="#fff"/><path d="M43 23.5a1.88 1.88 0 0 0 0 .13v8.87a11.5 11.5 0 1 0 23 0v-8.87a1.62 1.62 0 0 0 0-.13c0-1.93-2.91-3.5-6.5-3.5-2.01 0-3.8.5-5 1.26a9.45 9.45 0 0 0-5-1.26c-3.59 0-6.5 1.57-6.5 3.5Z" fill="#FF4F6D"/></g><g transform="translate(104 122)"><path fill-rule="evenodd" clip-rule="evenodd" d="M16 8c0 4.42 5.37 8 12 8s12-3.58 12-8" fill="#000" fill-opacity=".16"/></g><g transform="translate(76 90)"><path d="M27 16c-4.84 0-9 2.65-10.84 6.45-.54 1.1.39 1.85 1.28 1.12a15.13 15.13 0 0 1 9.8-3.22 6 6 0 1 0 10.7 2.8 2 2 0 0 0-.12-.74l-.15-.38a6 6 0 0 0-1.64-2.48C33.9 17.32 30.5 16 27 16ZM85 16c-4.84 0-9 2.65-10.84 6.45-.54 1.1.39 1.85 1.28 1.12a15.13 15.13 0 0 1 9.8-3.22 6 6 0 1 0 10.7 2.8 2 2 0 0 0-.12-.74l-.15-.38a6 6 0 0 0-1.64-2.48C91.9 17.32 88.5 16 85 16Z" fill="#000" fill-opacity=".6"/></g><g transform="translate(76 82)"><path d="m22.77 1.58.9-.4C28.93-.91 36.88-.03 41.73 2.3c.57.27.18 1.15-.4 1.1-14.92-1.14-24.96 8.15-28.37 14.45-.1.18-.41.2-.49.03-2.3-5.32 4.45-13.98 10.3-16.3ZM87 12.07c5.75.77 14.74 5.8 13.99 11.6-.03.2-.31.26-.44.1-2.49-3.2-21.71-7.87-28.71-6.9-.64.1-1.07-.57-.63-.98 3.75-3.54 10.62-4.52 15.78-3.82Z" fill-rule="evenodd" clip-rule="evenodd" fill="#000" fill-opacity=".6"/></g><g transform="translate(-1)"><path d="M250 70.5c0 .8-.03 1.6-.1 2.37A57.74 57.74 0 0 1 261 107c0 7.16-1.3 14.01-3.67 20.34a28.47 28.47 0 0 1-11.78 29.71 53.5 53.5 0 0 1-53.86 29.64A36.35 36.35 0 0 1 168.5 195c-4.02 0-7.88-.65-11.5-1.85v-12.54a56.03 56.03 0 0 0 31.8-45.74A12 12 0 0 0 199 123v-13a12 12 0 0 0-10-11.83V92a56 56 0 0 0-2.22-15.68l1.37 12.87-11.34-24-45.13-19.52-30.12 10.56-21.5 20.19-.04-2.6A55.93 55.93 0 0 0 77 92v6.17A12 12 0 0 0 67 110v13a12 12 0 0 0 10.2 11.87A56.03 56.03 0 0 0 109 180.6v10.94A36.36 36.36 0 0 1 93.5 195c-8.8 0-16.88-3.12-23.19-8.31a53.5 53.5 0 0 1-53.86-29.63 28.47 28.47 0 0 1-11.78-29.72A57.87 57.87 0 0 1 1 107a57.74 57.74 0 0 1 11.1-34.13 28.5 28.5 0 0 1 16-28.04 55.02 55.02 0 0 1 47.55-31.78 28.4 28.4 0 0 1 26.6-7.24A83.78 83.78 0 0 1 133 0a83.82 83.82 0 0 1 29.4 5.3 28.4 28.4 0 0 1 23.94 7.76 55.02 55.02 0 0 1 47.56 31.77A28.5 28.5 0 0 1 250 70.5Z" fill="#c93305"/><path d="M188.37 98.97c.41-2.55.63-5.16.63-7.82C189 62.35 163.7 39 132.5 39S76 62.35 76 91.15c0 2.66.22 5.27.63 7.82 4.1-25.09 27.55-44.32 55.87-44.32 28.32 0 51.78 19.23 55.87 44.32Z" fill="#92D9FF"/></g><g transform="translate(49 72)"><path fill-rule="evenodd" clip-rule="evenodd" d="M65.18 77.74c2.18-1.64 15.23-2.26 17.58-3.65.73-.43 1.3-.87 1.74-1.31.44.44 1 .88 1.74 1.3 2.35 1.4 15.4 2.02 17.58 3.66 2.21 1.65 3.82 5.44 3.65 8.41-.22 3.56-4.1 12.05-13.8 13.03a12.3 12.3 0 0 0-9.17-3.87 12.3 12.3 0 0 0-9.17 3.87c-9.7-.98-13.58-9.47-13.8-13.03-.17-2.97 1.44-6.76 3.65-8.41Zm.67 17.16h.01-.01ZM144.86 56c-.39-5.97-1.58-11.85-2.63-17.71-.28-1.58-1.8-12.29-2.5-12.29-.23 9.1-1.03 18.08-2.06 27.14-.3 2.7-.63 5.42-.84 8.13-.18 2.2.13 4.85-.4 6.98-.68 2.7-4.08 5.23-6.73 6.16-6.6 2.33-12.1-7.3-17.74-10.12-7.32-3.66-19.9-4.53-27.38.24-7.64-4.77-20.22-3.9-27.54-.24C51.4 67.11 45.9 76.74 39.3 74.41c-2.65-.93-6.05-3.46-6.73-6.16-.53-2.13-.22-4.78-.4-6.98-.2-2.71-.53-5.42-.84-8.13A308.31 308.31 0 0 1 29.27 26c-.7 0-2.22 10.7-2.5 12.29-1.05 5.86-2.24 11.74-2.63 17.7-.4 6.11.07 12.18 1.33 18.17.6 2.87 1.3 5.72 2.05 8.54.83 3.15-.32 9.27.05 12.5.7 6.1 3.58 18 6.81 23.25 1.56 2.54 3.4 4.12 5.44 6.17 1.96 1.97 2.78 5.02 4.9 7.12 3.96 3.9 9.73 6.23 15.65 6.8 5.3 4.51 14.14 7.46 24.13 7.46 10 0 18.82-2.95 24.14-7.46 5.91-.57 11.68-2.9 15.63-6.8 2.13-2.1 2.95-5.15 4.91-7.12 2.05-2.05 3.88-3.63 5.44-6.17 3.23-5.25 6.1-17.15 6.8-23.26.38-3.22-.77-9.34.06-12.49.75-2.82 1.45-5.67 2.05-8.54 1.25-6 1.73-12.06 1.33-18.17Z" fill="#2c1b18"/></g><g transform="translate(62 42)"></g></g></g></svg>